<?xml version="1.0" encoding="UTF-8" standalone="no"?><!-- Generator: Gravit.io --><svg xmlns="http://www.w3.org/2000/svg" xmlns:xlink="http://www.w3.org/1999/xlink" style="isolation:isolate" viewBox="0 0 1080 1080" width="1080pt" height="1080pt"><defs><clipPath id="_clipPath_03GMNK5a3iVei5s8BLfAldYbngISP17O"><rect width="1080" height="1080"/></clipPath></defs><g clip-path="url(#_clipPath_03GMNK5a3iVei5s8BLfAldYbngISP17O)"><defs><filter id="iCnO1WvtU8inD9mb9Zu7CKv1V5CV3yBD" x="-200%" y="-200%" width="400%" height="400%" filterUnits="objectBoundingBox" color-interpolation-filters="sRGB"><feGaussianBlur xmlns="http://www.w3.org/2000/svg" in="SourceGraphic" stdDeviation="2.146804531419514"/><feOffset xmlns="http://www.w3.org/2000/svg" dx="0" dy="0" result="pf_100_offsetBlur"/><feFlood xmlns="http://www.w3.org/2000/svg" flood-color="#000000" flood-opacity="0.65"/><feComposite xmlns="http://www.w3.org/2000/svg" in2="pf_100_offsetBlur" operator="in" result="pf_100_dropShadow"/><feBlend xmlns="http://www.w3.org/2000/svg" in="SourceGraphic" in2="pf_100_dropShadow" mode="normal"/></filter></defs><g filter="url(#iCnO1WvtU8inD9mb9Zu7CKv1V5CV3yBD)"><linearGradient id="_lgradient_0" x1="-0.8597396364508969" y1="0.5023600085818495" x2="2.137440758293839" y2="0.48305084745762505" gradientTransform="matrix(844,0,0,944,118,68)" gradientUnits="userSpaceOnUse"><stop offset="1.25%" stop-opacity="1" style="stop-color:rgb(151,43,144)"/><stop offset="100%" stop-opacity="1" style="stop-color:rgb(244,129,117)"/></linearGradient><path d=" M 118 88 L 118 479.793 C 118 490.831 124.6 493.73 132.73 486.263 L 379.133 259.943 C 387.263 252.476 393.863 237.453 393.863 226.414 L 393.863 88 C 393.863 76.962 384.901 68 373.863 68 L 138 68 C 126.962 68 118 76.962 118 88 L 118 88 Z  M 119.479 992 L 118.072 600.207 C 118.032 589.169 124.936 585.882 133.479 592.872 L 378.384 793.256 C 386.927 800.246 393.796 814.882 393.712 825.92 L 392.463 992.001 C 392.38 1003.039 383.351 1012 372.312 1012 L 139.551 1012 C 128.512 1012 119.518 1003.038 119.479 992 L 119.479 992 Z  M 273.952 518.572 L 750.863 81.513 C 759.001 74.055 774.569 68 785.608 68 L 942 68 C 953.038 68 962 76.962 962 88 L 962 128.57 C 962 139.608 955.213 154.423 946.854 161.632 L 532.423 519.023 C 524.064 526.232 523.955 538.061 532.18 545.422 L 947.097 916.763 C 955.322 924.124 962 939.063 962 950.101 L 962 990.159 C 962 1001.198 953.038 1010.159 942 1010.159 L 785.608 1010.159 C 774.569 1010.159 759.091 1004.007 751.065 996.43 L 273.751 545.814 C 265.724 538.236 265.815 526.029 273.952 518.572 Z " fill-rule="evenodd" fill="url(#_lgradient_0)"/></g></g></svg>